<svg xmlns="http://www.w3.org/2000/svg" viewBox="0 0 228 52" width="228" height="52">
  <defs>
    <linearGradient id="grad" gradientUnits="userSpaceOnUse" x1="154.2" y1="0" x2="217.9" y2="40">
      <stop offset="0%"   stop-color="#4a7fff"/>
      <stop offset="100%" stop-color="#ec4899"/>
    </linearGradient>
  </defs>
  <path fill="#f0f0f0" d="M16.36 23.24H44.52V30.84H16.36ZM43.4 14.399999999999999H53.4V40.0H43.4ZM7.800000000000001 14.399999999999999H17.8V40.0H7.800000000000001ZM56.2 20.4H79.72V26.4H56.2ZM63.160000000000004 14.399999999999999H72.76V40.0H63.160000000000004ZM94.84 40.0 80.52 14.399999999999999H91.8L103.88 38.2L100.08 38.28L111.4 14.399999999999999H123.47999999999999L134.8 38.28L131.0 38.2L143.07999999999998 14.399999999999999H154.2L140.04 40.0H126.52000000000001L115.47999999999999 18.44H119.4L108.36 40.0Z"/>
  <path fill="url(#grad)" d="M168.0 43.88 164.95999999999998 46.92Q164.95999999999998 46.92 164.12 46.14Q163.28 45.36 162.04 43.86Q160.79999999999998 42.36 159.54 40.14Q158.28 37.92 157.44 35.019999999999996Q156.6 32.12 156.6 28.560000000000002Q156.6 25.0 157.44 22.14Q158.28 19.28 159.54 17.12Q160.79999999999998 14.96 162.04 13.52Q163.28 12.079999999999998 164.12 11.339999999999998Q164.95999999999998 10.599999999999998 164.95999999999998 10.599999999999998L168.0 13.64Q168.0 13.64 167.18 14.56Q166.35999999999999 15.48 165.29999999999998 17.34Q164.23999999999998 19.2 163.42 22.0Q162.6 24.799999999999997 162.6 28.560000000000002Q162.6 31.8 163.14 34.3Q163.67999999999998 36.8 164.5 38.62Q165.32 40.44 166.12 41.599999999999994Q166.92 42.76 167.45999999999998 43.32Q168.0 43.88 168.0 43.88ZM171.2 32.96H180.04Q180.6 34.0 182.18 34.4Q183.76 34.8 186.72 34.8Q189.0 34.8 190.1 34.56Q191.2 34.32 191.54 33.92Q191.88 33.519999999999996 191.88 33.08Q191.88 32.4 191.14 32.14Q190.4 31.88 188.64 31.82Q186.88 31.759999999999998 183.79999999999998 31.759999999999998Q180.88 31.759999999999998 178.57999999999998 31.5Q176.28 31.240000000000002 174.68 30.66Q173.07999999999998 30.08 172.24 29.04Q171.4 28.0 171.4 26.439999999999998Q171.4 24.52 172.64 23.22Q173.88 21.919999999999998 176.0 21.18Q178.12 20.44 180.9 20.12Q183.68 19.8 186.72 19.8Q191.76 19.8 194.95999999999998 20.82Q198.16 21.84 199.68 23.560000000000002Q201.2 25.28 201.16 27.439999999999998H192.56Q192.12 26.4 190.9 26.0Q189.68 25.6 186.72 25.6Q183.92 25.6 182.66 26.02Q181.4 26.439999999999998 181.4 27.36Q181.4 27.96 182.01999999999998 28.26Q182.64 28.560000000000002 184.38 28.68Q186.12 28.799999999999997 189.48 28.799999999999997Q191.79999999999998 28.799999999999997 194.01999999999998 28.959999999999997Q196.24 29.119999999999997 198.01999999999998 29.64Q199.79999999999998 30.16 200.83999999999997 31.240000000000002Q201.88 32.32 201.88 34.2Q201.88 36.48 200.01999999999998 37.9Q198.16 39.32 194.76 39.96Q191.35999999999999 40.6 186.72 40.6Q182.68 40.6 179.9 40.08Q177.12 39.56 175.36 38.7Q173.6 37.84 172.66 36.82Q171.72 35.8 171.42000000000002 34.78Q171.12 33.76 171.2 32.96ZM204.88 43.88Q204.88 43.88 205.42 43.32Q205.95999999999998 42.76 206.76 41.599999999999994Q207.56 40.44 208.38 38.62Q209.2 36.8 209.74 34.3Q210.28 31.8 210.28 28.560000000000002Q210.28 24.799999999999997 209.45999999999998 22.0Q208.64 19.2 207.57999999999998 17.34Q206.51999999999998 15.48 205.7 14.56Q204.88 13.64 204.88 13.64L207.92 10.599999999999998Q207.92 10.599999999999998 208.76 11.339999999999998Q209.6 12.079999999999998 210.86 13.52Q212.12 14.96 213.36 17.12Q214.6 19.28 215.44 22.14Q216.28 25.0 216.28 28.560000000000002Q216.28 32.12 215.44 35.019999999999996Q214.6 37.92 213.36 40.14Q212.12 42.36 210.86 43.86Q209.6 45.36 208.76 46.14Q207.92 46.92 207.92 46.92Z"/>
</svg>
